<?xml version="1.0" encoding="utf-8"?>
<!-- Generator: Adobe Illustrator 25.2.0, SVG Export Plug-In . SVG Version: 6.00 Build 0)  -->
<svg version="1.1" id="Capa_1" xmlns="http://www.w3.org/2000/svg" xmlns:xlink="http://www.w3.org/1999/xlink" x="0px" y="0px"
	 viewBox="0 0 700 700" style="enable-background:new 0 0 700 700;" xml:space="preserve">
<style type="text/css">
	.st0{fill:#191919;}
</style>
<g id="Capa_2_1_">
	<g id="Capa_1-2">
		<path class="st0" d="M350,24c180.1,0.1,326,146.2,325.9,326.3c-0.1,130.9-78.4,249.1-199,300.1C311,720.5,119.7,642.8,49.6,476.9
			s7.6-357.2,173.5-427.3C263.3,32.6,306.4,23.9,350,24 M350,0C156.7,0,0,156.7,0,350s156.7,350,350,350s350-156.7,350-350
			S543.3,0,350,0z"/>
		<g id="Capa_2-2">
			<g id="Capa_1-2-2">
				<path class="st0" d="M361.8,287.9c-6.6,6.3-17,6.3-23.6,0c-4.9-4.5-12.5-4.1-17,0.8c-4.3,4.7-4.2,11.9,0.2,16.4l0.1,0.1
					c16,15.1,41,15.1,57,0c4.7-4.7,4.7-12.4,0-17.1C374,283.6,366.5,283.5,361.8,287.9L361.8,287.9z"/>
				<path class="st0" d="M506.9,452c-0.4-17.8-4.7-31.5-11.8-42.5l-0.1-0.4c-17.7-26.8-51.6-36-80.5-43.8
					c-5.3-1.4-10.5-2.9-15.5-4.3v-7.9c33.3-18,54-52.8,54-90.7v-47.8c0.5-56.9-45.1-103.5-102-104.3
					c-56.9-0.7-103.6,45.1-104.2,102.1v50c0,37.9,20.7,72.7,54,90.7v7.9c-4.9,1.5-10.1,2.9-15.5,4.3c-40.7,11-91.3,24.5-92.4,86.7
					v105.4c0,6.6,5.4,12,12,12h90.9c6.6,0,12-5.4,12-12s-5.4-12-12-12h-14.5V497c0-6.6-5.4-12-12-12s-12,5.4-12,12v48.6H217v-93.1
					c0.7-41,28.8-51.5,74.7-63.9c3.9-1.1,7.8-2.2,11.7-3.2c8.5,25.7,36.3,39.7,62.1,31.1c14.7-4.9,26.3-16.4,31.1-31.1
					c3.9,1.1,7.8,2.2,11.8,3.2c4.3,1.2,8.5,2.4,12.6,3.5l0,0c38.4,11.2,61.2,23.3,62,60.4v93.1h-40.2V497c0-6.6-5.4-12-12-12h-0.1
					c-6.6,0-12,5.4-12,12v48.6H404c-6.6,0-12,5.4-12,12s5.4,12,12,12h103.1V452.5L506.9,452z M270.9,214.7
					c-0.5-43.6,34.4-79.5,78.1-80c43.6-0.5,79.5,34.4,80,78.1v14.3c-31.6,1.1-71.4-2.6-100.8-22.7c-5.3-3.6-12.5-2.4-16.3,2.6
					c-10.2,13.4-23,16.6-40.9,18.9L270.9,214.7z M375,370c0,13.8-11.2,25-25,25s-25-11.2-25-25v-7.5c16.5,4.1,33.7,4.1,50.2,0v7.5
					H375z M350,341.6c-43.6,0-79-35.4-79-79l0,0V250c19.4-2.2,37.5-5.6,52.7-20.2c33,18.6,73.1,22.4,105.4,21.4v11.2
					C429.1,306.1,393.7,341.6,350,341.6L350,341.6z"/>
			</g>
		</g>
	</g>
</g>
</svg>
