<?xml version="1.0" encoding="utf-8"?>
<!-- Generator: Adobe Illustrator 25.2.0, SVG Export Plug-In . SVG Version: 6.00 Build 0)  -->
<svg version="1.1" id="Capa_1" xmlns="http://www.w3.org/2000/svg" xmlns:xlink="http://www.w3.org/1999/xlink" x="0px" y="0px"
	 viewBox="0 0 700 700" style="enable-background:new 0 0 700 700;" xml:space="preserve">
<style type="text/css">
	.st0{fill:#B19975;}
</style>
<g id="Capa_2_1_">
	<g id="Capa_1-2">
		<path class="st0" d="M215.3,293.9c-5.5,0-10,4.4-10,9.9c0,2.7,1.1,5.3,3,7.2c13.3,12.6,34.2,12.6,47.4,0c4-3.9,4-10.2,0.2-14.1
			c-3.8-3.9-10.1-4-14.1-0.2c-5.5,5.2-14.1,5.2-19.6,0C220.4,294.9,217.9,293.9,215.3,293.9L215.3,293.9z"/>
		<path class="st0" d="M232.1,511c-5.5,0-10,4.5-10,10s4.5,10,10,10h0.1c5.5,0,10-4.5,10-10C242.1,515.5,237.6,511,232.1,511z"/>
		<path class="st0" d="M613.2,348.2c1.3-5.1-1.6-10.3-6.6-11.9c-23.7-7.8-51.9-25.5-51.9-65.1v-21c0-31.7-5.4-55-16.5-71.5
			C524.8,159.1,503,149,473.3,149s-51.5,10-64.9,29.8c-11.1,16.4-16.6,39.8-16.6,71.5v21c0,39.6-28.2,57.2-51.9,65.1
			c-5,1.6-7.8,6.8-6.6,11.9c5.1,20.8,13.1,32.9,27.5,39.6c-3,2.9-5.7,6.2-8.1,9.7c-14.7-22.3-42.9-29.9-66.9-36.4
			c-4.5-1.2-8.7-2.4-12.9-3.6V351c27.7-15,44.9-43.9,44.9-75.4v-39.7c0.5-47.3-37.5-86.1-84.8-86.7s-86.1,37.5-86.7,84.8
			c0,0.6,0,1.2,0,1.9v39.7c0,31.5,17.2,60.4,44.9,75.4v6.6c-4.1,1.2-8.4,2.4-12.9,3.6c-33.9,9.1-76,20.5-76.9,72.2
			c0,0.1,0,0.1,0,0.2V521c0,5.5,4.5,10,10,10h75.6c5.5,0,10-4.5,10-10s-4.5-10-10-10h-12.1v-40.4c0-5.5-4.5-10-10-10s-10,4.5-10,10
			V511h-33.5v-77.4c0.6-34.1,23.9-42.8,62.1-53.1c3.2-0.9,6.5-1.8,9.7-2.7c7.1,21.4,30.2,33,51.6,25.9c12.3-4.1,21.9-13.7,25.9-25.9
			c3.2,0.9,6.5,1.8,9.8,2.7c38.2,10.3,61.5,19,62.1,53.1V511h-33.5v-40.4c0-5.5-4.5-10-10-10s-10,4.5-10,10V511H277
			c-5.5,0-10,4.5-10,10s4.5,10,10,10h151.4c5.5,0,10-4.5,10-10s-4.5-10-10-10h-12.1v-40.4c0-5.5-4.5-10-10-10s-10,4.5-10,10V511
			h-33.6v-77.4c0.6-34.1,23.9-42.8,62.1-53.1c3.2-0.9,6.5-1.8,9.7-2.7c7.1,21.4,30.2,33,51.6,25.9c12.3-4.1,21.9-13.7,25.9-25.9
			c3.2,0.9,6.5,1.8,9.7,2.7c38.2,10.3,61.5,19,62.1,53.1V511h-33.5v-40.4c0-5.5-4.5-10-10-10s-10,4.5-10,10V511h-12.2
			c-5.5,0-10,4.5-10,10s4.5,10,10,10h75.7c5.5,0,10-4.5,10-10v-87.6c-0.3-20.9-7.5-35.2-18.1-45.5
			C600.2,381.1,608.1,369.1,613.2,348.2z M166.4,235.9c0-36.3,29.4-65.7,65.7-65.7s65.7,29.4,65.7,65.7v10.3
			c-26.3,0.9-59.4-2.2-83.9-18.9c-4.4-3-10.4-2-13.6,2.2c-8.5,11.1-19.1,13.9-34,15.6L166.4,235.9z M252.9,365
			c0,11.5-9.3,20.8-20.8,20.8s-20.8-9.3-20.8-20.8v-6.2c13.7,3.4,28,3.4,41.7,0V365z M232.1,341.4c-36.3,0-65.7-29.4-65.7-65.7
			v-10.4c16.1-1.8,31.2-4.7,43.8-16.8c27.4,15.5,60.8,18.6,87.6,17.8v9.4C297.8,311.9,268.4,341.3,232.1,341.4L232.1,341.4z
			 M424.9,190.1c9.6-14.1,25.4-21,48.4-21s38.8,6.9,48.4,21c7.9,11.7,12.2,28.8,13,52.2c-18.5,3.2-40.4,0.6-52.4-23.2
			c-2.6-4.9-8.7-6.8-13.7-4.2c-1.8,0.9-3.2,2.4-4.2,4.2c-12.1,23.9-33.9,26.4-52.4,23.2C412.7,218.9,417,201.8,424.9,190.1z
			 M432.5,357.6c-4.1,1.2-8.4,2.4-12.9,3.6c-12.1,3.3-25.3,6.8-37.2,12.4c-15.6-2.7-22.4-7.7-27.2-21.6c16.2-6.8,35.9-19,47.2-40.5
			c7.2,12.6,17.5,23,30,30.3L432.5,357.6L432.5,357.6z M494.1,365c0.3,11.5-8.9,21-20.4,21.3c-11.5,0.3-21-8.9-21.3-20.4
			c0-0.3,0-0.6,0-0.9v-14.9c13.6,3.6,28,3.6,41.6,0V365z M473.3,332.8c-33.9,0-61.5-27.5-61.5-61.5v-8.8c4.1,0.6,8.3,0.9,12.4,0.9
			c20.2,0,37.1-7.4,49.1-21.7c12,14.2,28.9,21.7,49.1,21.7c4.2,0,8.3-0.3,12.4-0.9v8.8C534.7,305.2,507.2,332.7,473.3,332.8
			L473.3,332.8z M564.2,373.6c-12-5.6-25.1-9.1-37.2-12.4c-4.5-1.2-8.7-2.4-12.9-3.6v-15.9c12.5-7.3,22.8-17.7,30-30.3
			c11.4,21.5,31,33.8,47.2,40.5C586.6,365.9,579.8,370.9,564.2,373.6L564.2,373.6z"/>
		<path class="st0" d="M473.3,511c-5.5,0-10,4.5-10,10s4.5,10,10,10h0.1c5.5,0,10-4.5,10-10C483.3,515.4,478.8,511,473.3,511
			L473.3,511z"/>
		<path class="st0" d="M350,24c180.1,0.1,326,146.2,325.9,326.3c-0.1,130.9-78.4,249.1-199,300.1C311,720.5,119.7,642.8,49.6,476.9
			s7.6-357.2,173.5-427.3C263.3,32.6,306.4,23.9,350,24 M350,0C156.7,0,0,156.7,0,350s156.7,350,350,350s350-156.7,350-350
			S543.3,0,350,0z"/>
	</g>
</g>
</svg>
