<?xml version="1.0" encoding="utf-8"?>
<!-- Generator: Adobe Illustrator 25.2.0, SVG Export Plug-In . SVG Version: 6.00 Build 0)  -->
<svg version="1.1" id="Capa_1" xmlns="http://www.w3.org/2000/svg" xmlns:xlink="http://www.w3.org/1999/xlink" x="0px" y="0px"
	 viewBox="0 0 700 700" style="enable-background:new 0 0 700 700;" xml:space="preserve">
<style type="text/css">
	.st0{fill:#B19975;}
</style>
<g id="Capa_2_1_">
	<g id="Capa_1-2">
		<path class="st0" d="M215.4,293.9c-5.5,0-10,4.5-10,10c0,2.7,1.1,5.3,3,7.2c13.3,12.6,34.1,12.6,47.4,0c4-3.9,4-10.2,0.2-14.1
			c-3.8-3.9-10.1-4-14.1-0.2c-5.5,5.2-14.1,5.2-19.6,0C220.4,294.9,217.9,293.8,215.4,293.9L215.4,293.9z"/>
		<path class="st0" d="M613.2,348.2c1.3-5.1-1.6-10.3-6.6-11.9c-23.7-7.8-51.9-25.5-51.9-65.1v-21c0-32.4-7.4-57.7-22-75.2
			c-14.2-17-34.7-26-59.5-26c-23.7,0-43.9,9-58.4,25.9c-15.1,17.7-23.1,43.8-23.1,75.3v21c0,21.9-8.6,39.4-25.6,51.9
			c-30.7-6.1-61.4,10.9-72.4,40.2c-2.7-0.8-16.7-4.5-20.8-5.7V351c27.6-15,44.9-43.9,44.9-75.4v-39.8c0.5-47.3-37.5-86.1-84.8-86.7
			s-86.1,37.5-86.7,84.8c0,0.6,0,1.2,0,1.9v39.7c0,31.5,17.2,60.4,44.9,75.4v6.7c-4.1,1.2-8.4,2.4-12.9,3.6
			c-33.9,9.1-76,20.5-76.9,72.2V521c0,5.5,4.5,10,10,10h135.2v14.3c0,5.5,4.5,10,10,10l0,0h51.9c5.5,0,10-4.5,10-10s-4.5-10-10-10
			h-41.9v-6c0-6.2,0.9-12.4,2.8-18.3c6.3-18,22.6-22.8,44.7-29.4l3.1-0.9c5.4,14.8,19.5,24.7,35.3,24.8c17.6,0,31.7-10,37-24.7
			l3.1,0.9c28.3,8.4,47,13.9,47.6,47.7v6h-42c-5.5,0-10,4.5-10,10s4.5,10,10,10h52c5.5,0,10-4.5,10-10c0,0,0,0,0-0.1V531h133.4
			c5.5,0,10-4.5,10-10v-87.6c-0.3-21-7.5-35.3-18.1-45.5C600.2,381.1,608.1,369.1,613.2,348.2L613.2,348.2z M473.3,169
			c18.9,0,33.7,6.3,44.1,18.8s16.2,30.8,17.2,54.5c-18.5,3.2-40.3,0.6-52.4-23.2c-2.6-4.9-8.7-6.8-13.7-4.2
			c-1.8,0.9-3.2,2.4-4.2,4.2c-12,23.8-33.8,26.4-52.4,23.2C414.3,196.2,436.8,169,473.3,169z M411.8,262.5c4.1,0.6,8.3,0.9,12.4,0.9
			c20.2,0,37.1-7.4,49.1-21.7c12,14.2,28.9,21.7,49.1,21.7c4.1,0,8.3-0.3,12.4-0.9v8.8c0,34-27.5,61.5-61.5,61.5
			s-61.5-27.5-61.5-61.5L411.8,262.5L411.8,262.5z M494.1,350v15c0,11.5-9.3,20.8-20.8,20.8c-11.5,0-20.8-9.3-20.8-20.8v-15
			C466.1,353.7,480.5,353.7,494.1,350L494.1,350z M402.4,311.3c7.2,12.6,17.5,23.1,30.1,30.4v15.9c-4.1,1.2-8.5,2.4-12.9,3.6
			c-2.1,0.6-4.1,1.1-6.2,1.7c-5.1-13-14.2-24-26.1-31.4C393.3,325.6,398.4,318.8,402.4,311.3L402.4,311.3z M312.9,369.3
			c9.2-22.5,34.8-33.3,57.3-24.1c13.8,5.6,23.8,17.8,26.6,32.4c-27.3-13-59.1-13-86.4,0C311,374.8,311.8,372,312.9,369.3
			L312.9,369.3z M166.4,235.9c-0.4-36.3,28.6-66.1,64.9-66.5s66.1,28.6,66.5,64.9c0,0.5,0,1.1,0,1.6v10.3
			c-26.3,0.9-59.4-2.2-83.9-19c-4.4-3-10.4-2-13.6,2.2c-8.5,11.1-19.1,13.9-34,15.6L166.4,235.9L166.4,235.9z M166.4,275.6v-10.4
			c16.1-1.8,31.2-4.7,43.8-16.8c27.4,15.5,60.8,18.6,87.6,17.8v9.4c-0.4,36.3-30.2,65.4-66.5,64.9
			C195.6,340.1,166.8,311.3,166.4,275.6z M252.9,358.8v6.2c-0.3,11.5-9.8,20.6-21.3,20.4c-11.1-0.2-20.1-9.2-20.4-20.4
			c0,0,0,0,0-0.1v-6.2c6.8,1.7,13.8,2.6,20.9,2.6C239.2,361.3,246.1,360.5,252.9,358.8z M315.2,460.5c-2.2,0.7-4.4,1.3-6.5,2
			c-24.7,7.3-52.2,15.4-59.9,48.5h-73.8v-40.5c0-5.5-4.5-10-10-10s-10,4.5-10,10V511h-33.5v-77.4c0.6-34.1,23.9-42.8,62.1-53.1
			c3.2-0.9,6.5-1.8,9.8-2.7c7.1,21.4,30.2,33,51.6,25.9c12.2-4.1,21.8-13.7,25.9-25.9c3.3,0.9,15.9,4.4,18.8,5.2
			c0,1-0.1,1.9-0.1,2.9V400c0,20.1,9.5,39.1,25.6,51.2L315.2,460.5z M372,467.8L372,467.8c0,12.1-9.9,17.6-19.2,17.6
			c-9.7,0-17.6-7.9-17.6-17.6v-6.5c2.5,0.7,4.9,1.3,7.5,1.8c6.6,1.1,13.4,1.2,20,0.3c3.2-0.4,6.3-1.1,9.3-2L372,467.8z M377.3,437.1
			c-13.4,9-33.6,9.4-47,0.2c-12.5-7.9-20.3-21.5-20.6-36.3c26.2-17.4,61.7-17.4,87.9,0C397.3,415.7,389.7,429.2,377.3,437.1z
			 M583.8,511h-33.5v-40.5c0-5.5-4.5-10-10-10s-10,4.5-10,10V511h-72c-7.7-33.1-35.2-41.3-59.9-48.5c-2.2-0.6-4.4-1.3-6.5-2v-9.3
			c16.2-12.1,25.7-31.1,25.7-51.2v-14c0-1.2,0-2.4-0.1-3.6c2.4-0.7,4.8-1.3,7.2-2c3.2-0.9,6.5-1.8,9.8-2.7
			c7.1,21.4,30.2,33,51.6,25.9c12.2-4.1,21.8-13.7,25.9-25.9c3.3,0.9,6.5,1.8,9.8,2.7c38.2,10.3,61.5,19,62.1,53.1V511z
			 M564.1,373.5c-11.9-5.6-25.1-9.1-37.2-12.4c-4.4-1.2-8.7-2.4-12.9-3.6v-15.9c12.5-7.3,22.8-17.7,30-30.3
			c11.4,21.5,31,33.8,47.3,40.5C586.6,365.9,579.8,370.9,564.1,373.5L564.1,373.5z"/>
		<path class="st0" d="M353.6,535.3c-5.5,0-10,4.5-10,10s4.5,10,10,10h0.1c5.5,0,10-4.5,10-10C363.6,539.7,359.1,535.3,353.6,535.3z
			"/>
		<path class="st0" d="M350,24c180.1,0.1,326,146.2,325.9,326.3c-0.1,130.9-78.4,249.1-199,300.1C311,720.5,119.7,642.8,49.6,476.9
			s7.6-357.2,173.5-427.3C263.3,32.6,306.4,23.9,350,24 M350,0C156.7,0,0,156.7,0,350s156.7,350,350,350s350-156.7,350-350
			S543.3,0,350,0z"/>
	</g>
</g>
</svg>
