<?xml version="1.0" encoding="utf-8"?>
<!-- Generator: Adobe Illustrator 25.2.0, SVG Export Plug-In . SVG Version: 6.00 Build 0)  -->
<svg version="1.1" id="Capa_1" xmlns="http://www.w3.org/2000/svg" xmlns:xlink="http://www.w3.org/1999/xlink" x="0px" y="0px"
	 viewBox="0 0 700 700" style="enable-background:new 0 0 700 700;" xml:space="preserve">
<style type="text/css">
	.st0{fill:#B19975;}
</style>
<g id="Capa_2_1_">
	<g id="Capa_1-2">
		<path class="st0" d="M567.5,158h-88.3c-4.6,0-8.4,3.7-8.4,8.4v29.4c0,4.6,3.7,8.4,8.4,8.4h16.6l-67.9,67.9
			c-43.2-34.4-104.4-34.4-147.6,0l-13.7-13.7l12.5-12.5c3.3-3.3,3.3-8.5,0-11.8c0,0,0,0,0,0L256.9,212c-3.3-3.3-8.6-3.3-11.8,0
			l-12.5,12.5l-20.3-20.3h16.6c4.6,0,8.4-3.7,8.4-8.4v-29.4c0-4.6-3.7-8.4-8.4-8.4h0h-88.3c-4.6,0-8.4,3.7-8.4,8.4v88.3
			c0,4.6,3.7,8.4,8.4,8.4H170c4.6,0,8.4-3.7,8.4-8.4v-16.6l20.3,20.3l-12.5,12.5c-3.3,3.3-3.3,8.6,0,11.8l22.1,22.1
			c3.3,3.3,8.5,3.3,11.8,0c0,0,0,0,0,0l12.5-12.5l16.7,16.7c-30.9,57.9-9.1,129.9,48.7,160.8c10.3,5.5,21.4,9.5,32.9,11.8v37.1
			h-21.1c-4.6,0-8.3,3.7-8.4,8.3v29.4c0,4.6,3.7,8.4,8.4,8.4h21.1v28.4c0,4.6,3.7,8.4,8.4,8.4h29.4c4.6,0,8.4-3.7,8.4-8.4v-28.4
			h21.1c4.6,0,8.4-3.7,8.4-8.4V527c0-4.6-3.7-8.4-8.4-8.4h-21.1v-37.1c64.4-12.8,106.2-75.3,93.4-139.6
			c-2.3-11.5-6.2-22.6-11.8-32.9l70.9-70.9v16.6c0,4.6,3.7,8.4,8.4,8.4h29.4c4.6,0,8.4-3.7,8.4-8.4v-88.3
			C575.8,161.8,572.1,158,567.5,158L567.5,158z M441.2,312c9.8,16,14.9,34.4,14.9,53.1c0,51-38,94.4-88.4,101.1
			c-4.2,0.6-7.3,4.1-7.3,8.3V527c0,4.6,3.7,8.4,8.4,8.4h21.1v12.7h-21.1c-4.6,0-8.4,3.7-8.4,8.4v28.4h-12.7v-28.4
			c0-4.6-3.7-8.4-8.4-8.4h-21.1v-12.7h21.1c4.6,0,8.4-3.7,8.4-8.4v-52.6c0-4.2-3.1-7.7-7.3-8.3C290,459.5,252,416.1,252,365.1
			c0-18.7,5.1-37.1,14.9-53.1c2-3.3,1.5-7.6-1.2-10.3l-27.1-27.1c-3.2-3.3-8.5-3.3-11.8,0c0,0,0,0,0,0L214.2,287l-10.3-10.3
			l12.5-12.5c3.3-3.3,3.3-8.6,0-11.8L175.9,212c-3.3-3.3-8.5-3.3-11.8,0c-1.6,1.6-2.5,3.7-2.5,5.9v28.4h-12.7v-71.6h71.6v12.7h-28.4
			c-4.6,0-8.4,3.7-8.4,8.3c0,2.2,0.9,4.4,2.5,5.9l40.5,40.5c3.3,3.3,8.6,3.3,11.8,0l12.5-12.5l10.2,10.3l-12.5,12.5
			c-3.3,3.3-3.3,8.6,0,11.8l25.1,25.1c3.2,3.2,8.3,3.3,11.5,0.3c38.9-35.4,98.4-35.4,137.3,0c3.3,3,8.4,2.9,11.5-0.3l87.7-87.6
			c3.3-3.3,3.3-8.6,0-11.8c-1.6-1.6-3.7-2.4-5.9-2.4h-28.4v-12.7h71.6v71.6h-12.7v-28.4c0-4.6-3.7-8.4-8.3-8.4
			c-2.2,0-4.4,0.9-5.9,2.5l-89.7,89.7C439.6,304.4,439.1,308.7,441.2,312z"/>
		<path class="st0" d="M354,283.1c-45.3,0-82,36.7-82,82s36.7,82,82,82s82-36.7,82-82l0,0C436,319.9,399.3,283.2,354,283.1z
			 M419.2,365.1c0,36-29.2,65.2-65.3,65.2c-36,0-65.2-29.2-65.2-65.3c0-36,29.2-65.2,65.2-65.2C390,299.9,419.2,329.1,419.2,365.1
			L419.2,365.1z"/>
		<path class="st0" d="M350,24c180.1,0.1,326,146.2,325.9,326.3c-0.1,130.9-78.4,249.1-199,300.1C311,720.5,119.7,642.8,49.6,476.9
			s7.6-357.2,173.5-427.3C263.3,32.6,306.4,23.9,350,24 M350,0C156.7,0,0,156.7,0,350s156.7,350,350,350s350-156.7,350-350
			S543.3,0,350,0z"/>
	</g>
</g>
</svg>
