<?xml version="1.0" encoding="utf-8"?>
<!-- Generator: Adobe Illustrator 25.2.0, SVG Export Plug-In . SVG Version: 6.00 Build 0)  -->
<svg version="1.1" id="Capa_1" xmlns="http://www.w3.org/2000/svg" xmlns:xlink="http://www.w3.org/1999/xlink" x="0px" y="0px"
	 viewBox="0 0 700 700" style="enable-background:new 0 0 700 700;" xml:space="preserve">
<style type="text/css">
	.st0{fill:#191919;}
</style>
<g id="Capa_2_1_">
	<g id="Capa_1-2">
		<path class="st0" d="M350,24c180.1,0.1,326,146.2,325.9,326.3c-0.1,130.9-78.4,249.1-199,300.1C311,720.5,119.7,642.8,49.6,476.9
			s7.6-357.2,173.5-427.3C263.3,32.6,306.4,23.9,350,24L350,24z M350,0C156.7,0,0,156.7,0,350s156.7,350,350,350s350-156.7,350-350
			S543.3,0,350,0z"/>
		<path class="st0" d="M353.2,138.4c6.1,0,11-4.9,11-11v-47c0-6.1-4.9-11-11-11s-11,4.9-11,11v47
			C342.2,133.5,347.1,138.4,353.2,138.4z"/>
		<path class="st0" d="M228.5,180.4c4.2,4.4,11.2,4.4,15.6,0.2c4.4-4.2,4.4-11.2,0.2-15.6c-0.1-0.1-0.1-0.1-0.2-0.2l-36.7-36.7
			c-4.3-4.3-11.3-4.3-15.6,0s-4.3,11.3,0,15.6L228.5,180.4z"/>
		<path class="st0" d="M466.3,187.5c2.9,0,5.7-1.2,7.8-3.2l53.4-53.4c4.3-4.3,4.3-11.3,0-15.6c-4.3-4.3-11.3-4.3-15.6,0l0,0
			l-53.4,53.4c-4.3,4.3-4.3,11.3,0,15.6C460.5,186.3,463.3,187.5,466.3,187.5L466.3,187.5z"/>
		<path class="st0" d="M204.8,289.5c0-6.1-4.9-11-11-11h-65.2c-6.1,0-11,4.9-11,11s4.9,11,11,11h65.2
			C199.8,300.5,204.8,295.6,204.8,289.5z"/>
		<path class="st0" d="M577.8,278.5h-65.2c-6.1,0-11,4.9-11,11s4.9,11,11,11h65.2c6.1,0,11-4.9,11-11S583.8,278.5,577.8,278.5z"/>
		<path class="st0" d="M479.3,514.6l-59.9-28.5c-7.2-3.4-11.7-10.7-11.7-18.6l0.1-54.9c0-9.6,3.9-18.9,10.7-25.7l33.9-33.5
			c34.4-33.9,34.8-89.3,0.9-123.7c-2.9-2.9-5.9-5.6-9.2-8.1c0,0-44.4-33.9-68.8-52.4c-6.2-4.8-14.7-5.6-21.7-2.1l-0.5,0.3l-0.5-0.3
			c-7-3.5-15.5-2.7-21.7,2.1c-20,15.2-53.4,40.7-64.8,49.4l-3.9,2.9l-0.1,0.1c-38.4,29.3-45.7,84.2-16.4,122.6
			c2.5,3.2,5.2,6.3,8.1,9.2l34,33.8c6.8,6.8,10.7,16,10.7,25.7l0.1,54.7c0,7.9-4.5,15.1-11.6,18.6L226.5,515
			c-21,10-30.5,34.8-21.7,56.3c1.1,2.7,2.5,5.3,4.1,7.7c2.6,3.8,5.6,7.2,9.1,10.2c7.6,6.7,16,10.2,24.2,10.2
			c19.6,0,56.2-19.3,57.7-20.1l46.4-19.3l51.9,19.3c1.8,0.8,45.4,20.1,65.3,20.1l0,0c22.6,0,33.9-20.3,34-20.5
			c1.4-2.3,2.7-4.7,3.7-7.2C510.3,549.9,500.6,524.8,479.3,514.6z M343.1,236.3c3.8-2.9,7.1-6.2,10-10c2.9,3.8,6.2,7.1,10,10
			l44,33.7c11.7,8.9,13.9,25.6,5,37.3c-0.8,1-1.6,1.9-2.5,2.8l-8.7,8.6c0.2-1.8,0.3-3.5,0.3-5.3v-6.2c0.4-26.6-20.9-48.4-47.4-48.8
			c-26.6-0.4-48.4,20.9-48.8,47.4c0,0.5,0,0.9,0,1.4v6.2c0,1.8,0.1,3.6,0.3,5.3l-8.8-8.6c-10.5-10.3-10.6-27.2-0.3-37.6
			c0.9-0.9,1.8-1.7,2.8-2.5L343.1,236.3z M379.3,307.1v6.2c-0.3,14.4-12.2,25.9-26.6,25.6c-14-0.3-25.3-11.6-25.6-25.6v-6.2
			c-0.3-14.4,11.2-26.4,25.6-26.6s26.4,11.2,26.6,25.6C379.3,306.4,379.3,306.8,379.3,307.1z M480.9,563.4
			c-4.6,11.3-17.3,16.8-28.7,12.5l-71.7-26.7h22c6.1,0,11-4.9,11-11s-4.9-11-11-11h-32.7c-1.5,0-2.9,0.3-4.2,0.8l-111.9,46.6
			c-11,4.9-24,0-28.9-11.1c-4.9-11,0-24,11.1-28.9l0,0l60.5-28.8c14.8-7.1,24.2-22.1,24.2-38.5l-0.1-54.7
			c-0.1-15.5-6.3-30.3-17.2-41.3l-34.1-33.7c-25.7-25.4-26-66.8-0.7-92.5c2.1-2.2,4.4-4.2,6.9-6.1c0,0,42.2-32.2,66.9-51l-0.3,5.7
			c0,9.8-4.6,19-12.4,25l-44.1,33.7c-21.3,16.3-25.4,46.8-9.1,68.1c1.4,1.8,2.9,3.5,4.5,5.1l14.6,14.4c31.8,31.4,82.9,31.4,114.7,0
			l14.6-14.4c19.1-18.8,19.3-49.6,0.5-68.7c-1.6-1.6-3.3-3.1-5.1-4.5l-44-33.7c-7.8-6-12.3-15.2-12.4-25l-0.3-5.7
			c24.3,18.5,64.3,49,66.8,50.9l0.1,0.1c28.7,21.9,34.2,63,12.3,91.7c-1.9,2.4-3.9,4.7-6.1,6.9l-33.9,33.5
			c-11,10.9-17.2,25.8-17.3,41.2l-0.1,54.9c0,16.5,9.4,31.5,24.2,38.6l59.9,28.5C480.6,539.7,485.4,552.4,480.9,563.4z"/>
	</g>
</g>
</svg>
