<svg xmlns="http://www.w3.org/2000/svg" viewBox="0 0 79.41 79.41"><defs><style>.cls-1{fill:#b19975;}.cls-2{fill:#fff;}</style></defs><g id="Capa_2" data-name="Capa 2"><g id="Capa_1-2" data-name="Capa 1"><rect class="cls-1" width="79.41" height="79.41" rx="5.42"/><path class="cls-2" d="M77.64,40.27a1,1,0,0,0,0-1.13A39.44,39.44,0,0,0,72.91,34a20.84,20.84,0,0,0,1.68-9.9,1,1,0,0,0-.33-.65,21,21,0,0,0-9.19-4.31l-.56-3.43a.93.93,0,0,0-.79-.79l-3.43-.56A21,21,0,0,0,56,5.15a1,1,0,0,0-.65-.33,20.84,20.84,0,0,0-9.9,1.68,39.44,39.44,0,0,0-5.16-4.73,1,1,0,0,0-1.13,0A39.44,39.44,0,0,0,34,6.5a20.84,20.84,0,0,0-9.9-1.68,1,1,0,0,0-.65.33,21,21,0,0,0-4.31,9.19l-3.43.56a.93.93,0,0,0-.79.79l-.56,3.43a21,21,0,0,0-9.19,4.31,1,1,0,0,0-.33.65A20.84,20.84,0,0,0,6.5,34a39.44,39.44,0,0,0-4.73,5.16,1,1,0,0,0,0,1.13A39.44,39.44,0,0,0,6.5,45.43a20.84,20.84,0,0,0-1.68,9.9,1,1,0,0,0,.33.65,21,21,0,0,0,9.19,4.31l.56,3.43a.93.93,0,0,0,.79.79l3.43.56a21,21,0,0,0,4.31,9.19,1,1,0,0,0,.65.33,14.14,14.14,0,0,0,1.45.06A19.85,19.85,0,0,0,34,72.91a39.44,39.44,0,0,0,5.16,4.73,1,1,0,0,0,1.13,0,39.44,39.44,0,0,0,5.16-4.73,19.85,19.85,0,0,0,8.45,1.74,14.14,14.14,0,0,0,1.45-.06,1,1,0,0,0,.65-.33,21,21,0,0,0,4.31-9.19l3.43-.56a.93.93,0,0,0,.79-.79l.56-3.43A21,21,0,0,0,74.26,56a1,1,0,0,0,.33-.65,20.84,20.84,0,0,0-1.68-9.9A39.44,39.44,0,0,0,77.64,40.27ZM71.4,32.68c-.73-.6-1.46-1.14-2.19-1.63a10.81,10.81,0,0,0,.67-4.54,1,1,0,0,0-.34-.64,10.7,10.7,0,0,0-3.9-2,23.24,23.24,0,0,0-.26-2.75,19.55,19.55,0,0,1,7.33,3.54A19.52,19.52,0,0,1,71.4,32.68Zm-5.86-6.87A9.21,9.21,0,0,1,68,27.08a8.77,8.77,0,0,1-.43,3A19,19,0,0,0,65,28.82,19.62,19.62,0,0,0,65.54,25.81ZM54.76,6.7A19.55,19.55,0,0,1,58.3,14a23.45,23.45,0,0,0-2.75-.26,10.7,10.7,0,0,0-2-3.9,1,1,0,0,0-.64-.34,10.81,10.81,0,0,0-4.54.67c-.49-.73-1-1.46-1.63-2.19A19.52,19.52,0,0,1,54.76,6.7ZM53.6,13.87a19.62,19.62,0,0,0-3,.54,19,19,0,0,0-1.21-2.56,8.77,8.77,0,0,1,2.95-.43A9.21,9.21,0,0,1,53.6,13.87ZM24.65,6.7a19.52,19.52,0,0,1,8,1.31,25.82,25.82,0,0,0-1.63,2.19,10.81,10.81,0,0,0-4.54-.67,1,1,0,0,0-.64.34,10.7,10.7,0,0,0-2,3.9,23.45,23.45,0,0,0-2.75.26A19.55,19.55,0,0,1,24.65,6.7ZM30,11.85a19,19,0,0,0-1.21,2.56,19.62,19.62,0,0,0-3-.54,9.21,9.21,0,0,1,1.27-2.45A9.07,9.07,0,0,1,30,11.85ZM11.85,30a8.8,8.8,0,0,1-.43-3,9.07,9.07,0,0,1,2.45-1.27,19.62,19.62,0,0,0,.54,3A19,19,0,0,0,11.85,30ZM6.7,24.65A19.55,19.55,0,0,1,14,21.11a23.45,23.45,0,0,0-.26,2.75,10.7,10.7,0,0,0-3.9,2,1,1,0,0,0-.34.64,10.81,10.81,0,0,0,.67,4.54c-.73.49-1.46,1-2.19,1.63A19.52,19.52,0,0,1,6.7,24.65ZM8,46.73c.73.6,1.46,1.15,2.19,1.64a10.75,10.75,0,0,0-.67,4.53,1,1,0,0,0,.34.64,10.7,10.7,0,0,0,3.9,2A23.45,23.45,0,0,0,14,58.3,19.55,19.55,0,0,1,6.7,54.76,19.52,19.52,0,0,1,8,46.73Zm5.86,6.87a9.21,9.21,0,0,1-2.45-1.27,8.77,8.77,0,0,1,.43-2.95,19,19,0,0,0,2.56,1.21A20.07,20.07,0,0,0,13.87,53.6ZM24.65,72.71a19.55,19.55,0,0,1-3.54-7.33,23.45,23.45,0,0,0,2.75.26,10.7,10.7,0,0,0,2,3.9,1,1,0,0,0,.64.34s.3,0,.72,0a10.33,10.33,0,0,0,3.82-.69c.49.73,1,1.46,1.63,2.19A19.52,19.52,0,0,1,24.65,72.71Zm1.16-7.17a19.62,19.62,0,0,0,3-.54A19,19,0,0,0,30,67.56a8.77,8.77,0,0,1-3,.43A9.21,9.21,0,0,1,25.81,65.54Zm29,7.17a19.52,19.52,0,0,1-8-1.31c.6-.73,1.14-1.46,1.63-2.19a10.33,10.33,0,0,0,3.82.69c.42,0,.68,0,.72,0a1,1,0,0,0,.64-.34,10.7,10.7,0,0,0,2-3.9,23.45,23.45,0,0,0,2.75-.26A19.55,19.55,0,0,1,54.76,72.71Zm-5.37-5.16A19.45,19.45,0,0,0,50.59,65a19.62,19.62,0,0,0,3,.54A9,9,0,0,1,52.32,68,9,9,0,0,1,49.39,67.55Zm13.35-4.81-3.77.6a24.87,24.87,0,0,1-3.67.39,18.85,18.85,0,0,1-4.15-.56,11.14,11.14,0,0,0,0-5.32A1,1,0,0,0,50,57.16a1,1,0,0,0-.7,1.16,9.11,9.11,0,0,1,0,4.25,8.55,8.55,0,0,1-4-2.92,1,1,0,0,0-1.64,1,10.4,10.4,0,0,0,5,3.76c-2,5.27-7.33,9.85-9.08,11.25-1.74-1.4-7-6-9.07-11.25a10.4,10.4,0,0,0,5-3.76,1,1,0,0,0-1.64-1,8.49,8.49,0,0,1-4,2.92,9.11,9.11,0,0,1,0-4.25,1,1,0,0,0-.7-1.16,1,1,0,0,0-1.16.69,11.14,11.14,0,0,0,0,5.32,18.85,18.85,0,0,1-4.15.56,25,25,0,0,1-3.68-.39l-3.76-.6L16.07,59a24.73,24.73,0,0,1-.39-3.67,19,19,0,0,1,.56-4.15,11.93,11.93,0,0,0,2.8.35,10.6,10.6,0,0,0,2.52-.31,1,1,0,0,0-.47-1.86,9.11,9.11,0,0,1-4.25,0,8.55,8.55,0,0,1,2.92-4,1,1,0,0,0-1-1.64,10.4,10.4,0,0,0-3.76,5c-5.27-2-9.85-7.33-11.25-9.07,1.4-1.75,6-7.05,11.25-9.08a10.4,10.4,0,0,0,3.76,5,1,1,0,0,0,.49.13,1,1,0,0,0,.5-1.77,8.49,8.49,0,0,1-2.92-4,9.11,9.11,0,0,1,4.25,0,1,1,0,0,0,.47-1.86,11.14,11.14,0,0,0-5.32,0,18.85,18.85,0,0,1-.56-4.15,25,25,0,0,1,.39-3.68l.6-3.76,3.77-.6a24.73,24.73,0,0,1,3.67-.39,18.85,18.85,0,0,1,4.15.56,11.14,11.14,0,0,0,0,5.32,1,1,0,0,0,1.16.69,1,1,0,0,0,.7-1.16,9.11,9.11,0,0,1,0-4.25,8.55,8.55,0,0,1,4,2.92,1,1,0,0,0,1.64-1,10.4,10.4,0,0,0-5-3.76c2-5.27,7.33-9.85,9.07-11.25,1.75,1.4,7,6,9.08,11.25a10.4,10.4,0,0,0-5,3.76,1,1,0,0,0,1.64,1,8.49,8.49,0,0,1,4-2.92,9.11,9.11,0,0,1,0,4.25,1,1,0,0,0,.7,1.16.91.91,0,0,0,.23,0,1,1,0,0,0,.93-.72,11.14,11.14,0,0,0,0-5.32,18.85,18.85,0,0,1,4.15-.56,25.13,25.13,0,0,1,3.68.39l3.76.6.6,3.77a24.73,24.73,0,0,1,.39,3.67,18.85,18.85,0,0,1-.56,4.15,11.14,11.14,0,0,0-5.32,0,1,1,0,0,0,.47,1.86,9.11,9.11,0,0,1,4.25,0,8.41,8.41,0,0,1-2.92,4,1,1,0,0,0,.5,1.77,1,1,0,0,0,.49-.13,10.4,10.4,0,0,0,3.76-5c5.27,2,9.85,7.33,11.25,9.08-1.4,1.74-6,7-11.25,9.07a10.4,10.4,0,0,0-3.76-5,1,1,0,0,0-1,1.64,8.49,8.49,0,0,1,2.92,4,9.11,9.11,0,0,1-4.25,0,1,1,0,0,0-.47,1.86,10.6,10.6,0,0,0,2.52.31,11.93,11.93,0,0,0,2.8-.35,19,19,0,0,1,.56,4.15A25,25,0,0,1,63.34,59ZM68,52.33a9.07,9.07,0,0,1-2.45,1.27,19.84,19.84,0,0,0-.54-3,19,19,0,0,0,2.56-1.21A8.84,8.84,0,0,1,68,52.33Zm4.72,2.43a19.55,19.55,0,0,1-7.33,3.54,23.24,23.24,0,0,0,.26-2.75,10.7,10.7,0,0,0,3.9-2,1,1,0,0,0,.34-.64,10.75,10.75,0,0,0-.67-4.53c.73-.49,1.46-1,2.19-1.64A19.52,19.52,0,0,1,72.71,54.76Z"/><path class="cls-2" d="M53.2,26.12H48.76a4.29,4.29,0,0,0-2.3,1.23,3.91,3.91,0,0,0-1.12,2.75c0,1.77,0,3.53,0,5.3a3.88,3.88,0,0,1-.94,2.64,3.81,3.81,0,0,1-2.17,1.27c-.2,0-.26,0-.26-.2,0-.49,0-1,0-1.46V28.93c0-.92.24-1.16,1.17-1.16h.27a.83.83,0,0,0,.44-1.57l-.12-.07H35.29l-.2.12a.85.85,0,0,0-.33.91.83.83,0,0,0,.77.61h.52c.71,0,1,.3,1,1v6.79c0,1.16,0,2.32,0,3.49,0,.25-.07.3-.31.25a3.89,3.89,0,0,1-3-3.34c-.07-.67,0-1.34,0-2,0-1.26,0-2.52,0-3.79a4,4,0,0,0-3.14-4l-.29-.08H26.21a1,1,0,0,0-.57,1c0,1,0,2,0,3a.81.81,0,0,0,.88.87h1.81c.44,0,.44,0,.44.43,0,1.41,0,2.82,0,4.22a8.44,8.44,0,0,0,2.48,6,8.54,8.54,0,0,0,5.51,2.64c.24,0,.29.13.28.34,0,.65,0,1.3,0,1.95v4.65a.85.85,0,0,1-.93,1h-.52a.83.83,0,1,0,0,1.66h7.81a.81.81,0,0,0,.85-.83.82.82,0,0,0-.84-.83h-.51a.86.86,0,0,1-1-1v-.41c0-2.05,0-4.11,0-6.16,0-.23,0-.35.3-.36a7.93,7.93,0,0,0,1-.14,8.79,8.79,0,0,0,7-8.47c0-1.42,0-2.83,0-4.25,0-.42,0-.42.43-.42s1.12,0,1.68,0a1,1,0,0,0,1-.57V26.29C53.36,26.15,53.33,26.12,53.2,26.12Zm-1.74,3.24h-2a.83.83,0,0,0-.9.91c0,1.72,0,3.44,0,5.17a7.05,7.05,0,0,1-1.35,4.25A6.93,6.93,0,0,1,42,42.62l-.78,0a.81.81,0,0,0-.86.86,1.61,1.61,0,0,0,0,.22v7.44a2.68,2.68,0,0,0,.06.8c0,.14,0,.2-.15.2H38.81c-.14,0-.2,0-.15-.19a3.09,3.09,0,0,0,.06-.86c0-2.47,0-4.94,0-7.41a1,1,0,0,0-1.06-1.07,7,7,0,0,1-6.6-4.23,6.82,6.82,0,0,1-.62-3c0-1.69,0-3.39,0-5.08a.84.84,0,0,0-1-1H27.57c-.19,0-.27-.06-.27-.27,0-.37,0-.74,0-1.11,0-.14,0-.22.2-.21.83,0,1.67-.05,2.51.05a2.41,2.41,0,0,1,2,2,5.92,5.92,0,0,1,.05.84c0,1.68,0,3.37,0,5.05A5.54,5.54,0,0,0,36.76,41a8.62,8.62,0,0,0,1.13,0,.8.8,0,0,0,.83-.82V28.14c0-.37,0-.37.37-.37h.84c.37,0,.38,0,.38.36v6c0,1.93,0,3.86,0,5.79,0,.8.35,1.13,1.12,1.14a5.59,5.59,0,0,0,5.49-4.52,4.6,4.6,0,0,0,.09-.91c0-1.77,0-3.53,0-5.3a2.45,2.45,0,0,1,2.49-2.59h2c.21,0,.27.08.26.27,0,.36,0,.71,0,1.06C51.73,29.29,51.66,29.36,51.46,29.36Z"/><path class="cls-2" d="M23.11,39.32v1.16h1.38a1.17,1.17,0,0,1-1.29.87,1.49,1.49,0,0,1-1.12-.46,1.65,1.65,0,0,1-.44-1.17,1.63,1.63,0,0,1,.44-1.16,1.49,1.49,0,0,1,1.12-.46,1.77,1.77,0,0,1,.46.07,1.27,1.27,0,0,1,.35.15,1.1,1.1,0,0,1,.25.19l.15.14,0,.07,1.16-1.16-.09-.11a1.41,1.41,0,0,0-.27-.23,4.61,4.61,0,0,0-.46-.29,3.31,3.31,0,0,0-.68-.24,3.6,3.6,0,0,0-.88-.1,3.14,3.14,0,0,0-2.3.91A3,3,0,0,0,20,39.73a3,3,0,0,0,.9,2.2,3.07,3.07,0,0,0,2.27.89A2.87,2.87,0,0,0,25.35,42a3,3,0,0,0,.84-2.18,3.42,3.42,0,0,0,0-.45Z"/><path class="cls-2" d="M57.51,40.55a2,2,0,0,0,.85-.73,2,2,0,0,0,.31-1.11A1.9,1.9,0,0,0,58,37.23a2.38,2.38,0,0,0-1.64-.55H53.6v6h1.65V40.79h.59L57,42.73h1.91Zm-.7-1.22a.85.85,0,0,1-.61.2h-1V38.06h1a.9.9,0,0,1,.61.2.7.7,0,0,1,.21.54A.69.69,0,0,1,56.81,39.33Z"/></g></g></svg>