<svg xmlns="http://www.w3.org/2000/svg" viewBox="0 0 190.48 53.88"><defs><style>.cls-1{fill:#b19975;}</style></defs><g id="Capa_2" data-name="Capa 2"><g id="Capa_1-2" data-name="Capa 1"><path class="cls-1" d="M75.55,24.93H73.61v7.89A7.74,7.74,0,0,1,73,36a6.28,6.28,0,0,1-1.73,2.27,7.46,7.46,0,0,1-2.63,1.36,11.57,11.57,0,0,1-3.31.45A7,7,0,0,1,64,40a5.16,5.16,0,0,1-1.12-.31,2.68,2.68,0,0,1-.77-.48.8.8,0,0,1-.29-.61,2.05,2.05,0,0,1,.06-.49,1.55,1.55,0,0,1,.21-.45,1,1,0,0,1,.33-.33.73.73,0,0,1,.43-.13.32.32,0,0,1,.27.15,3.27,3.27,0,0,1,.23.36l.28.48a2.27,2.27,0,0,0,.41.47,2,2,0,0,0,.59.37,2.19,2.19,0,0,0,.87.15,4.24,4.24,0,0,0,1.83-.38,3.62,3.62,0,0,0,1.33-1.06,4.73,4.73,0,0,0,.8-1.62,7.31,7.31,0,0,0,.28-2.1v-.82a11.29,11.29,0,0,1-1.14.19,12.37,12.37,0,0,1-1.28.06,10.41,10.41,0,0,1-3.43-.56,7.34,7.34,0,0,1-2.79-1.73,8.13,8.13,0,0,1-1.88-3,12.19,12.19,0,0,1-.68-4.33,13.06,13.06,0,0,1,.37-3.22,10.62,10.62,0,0,1,1-2.67,9.52,9.52,0,0,1,3.6-3.6,9.71,9.71,0,0,1,2.29-.92,10.45,10.45,0,0,1,4.62-.08,6.12,6.12,0,0,1,1.75.64,3.45,3.45,0,0,1,1.18,1,2.5,2.5,0,0,1,.43,1.42,2.64,2.64,0,0,1-.13.76,2.79,2.79,0,0,1-.37.73,1.83,1.83,0,0,1-.61.53,1.71,1.71,0,0,1-.86.21,1,1,0,0,1-.85-.33,2.39,2.39,0,0,1-.42-.81,7.65,7.65,0,0,1-.21-1.06,5.62,5.62,0,0,0-.22-1.07,2.2,2.2,0,0,0-.49-.81,1.33,1.33,0,0,0-1-.33,3.08,3.08,0,0,0-1.06.23,4.54,4.54,0,0,0-1.2.72,7.56,7.56,0,0,0-1.19,1.25,8.26,8.26,0,0,0-1,1.82,13.06,13.06,0,0,0-.73,2.44,16.27,16.27,0,0,0-.27,3.1,19.11,19.11,0,0,0,.24,3.27,9.68,9.68,0,0,0,.64,2.25A4.69,4.69,0,0,0,65,30.78a3.83,3.83,0,0,0,1.07.8,3.61,3.61,0,0,0,1.1.35,7.22,7.22,0,0,0,1,.07,4.61,4.61,0,0,0,.86-.07,3.38,3.38,0,0,0,.7-.21V24.93H67.38v-1.2h8.17Z"/><path class="cls-1" d="M81.68,20.35a3.24,3.24,0,0,0-.85.11,2.75,2.75,0,0,0-.67.27,1.69,1.69,0,0,0-.45.36.63.63,0,0,0-.16.37.31.31,0,0,0,.21.29l.47.2a1.42,1.42,0,0,1,.46.32.87.87,0,0,1,.21.64,1.14,1.14,0,0,1-.12.52,1.35,1.35,0,0,1-.31.41,1.51,1.51,0,0,1-.45.29,1.72,1.72,0,0,1-.55.1,1.54,1.54,0,0,1-1.21-.51,2,2,0,0,1-.47-1.36A2.29,2.29,0,0,1,78.22,21a3.38,3.38,0,0,1,1.12-1,5.84,5.84,0,0,1,1.57-.56,8.71,8.71,0,0,1,3.75.05,4.87,4.87,0,0,1,1.69.73A3.56,3.56,0,0,1,88,23.33v7.59a2.44,2.44,0,0,0,0,.27.77.77,0,0,0,.07.27.53.53,0,0,0,.16.2.48.48,0,0,0,.31.09.69.69,0,0,0,.45-.19,3.23,3.23,0,0,0,.37-.37l.34.29c-.14.18-.3.39-.49.61a3.8,3.8,0,0,1-.68.64,4.17,4.17,0,0,1-.94.49,3.37,3.37,0,0,1-1.23.21,2.37,2.37,0,0,1-1.5-.51A2.45,2.45,0,0,1,84,31.37a5.61,5.61,0,0,1-.89,1,4.89,4.89,0,0,1-.95.63,4.2,4.2,0,0,1-1,.35,4.77,4.77,0,0,1-1,.11,3.77,3.77,0,0,1-1.25-.21,2.8,2.8,0,0,1-1.08-.63,3.14,3.14,0,0,1-.77-1.14,4.56,4.56,0,0,1-.29-1.71,3.77,3.77,0,0,1,.48-2,4.4,4.4,0,0,1,1.27-1.31,8.59,8.59,0,0,1,1.79-.91c.67-.25,1.35-.52,2-.8a2.17,2.17,0,0,0,1.14-.92,2.4,2.4,0,0,0,.36-1.25,2.19,2.19,0,0,0-.59-1.6A2.12,2.12,0,0,0,81.68,20.35Zm2.14,5.89a.64.64,0,0,0-.22-.51.88.88,0,0,0-.55-.17,2,2,0,0,0-.89.21,2.18,2.18,0,0,0-.75.64,3,3,0,0,0-.51,1,4.74,4.74,0,0,0-.19,1.42,6.52,6.52,0,0,0,.11,1.29,2.56,2.56,0,0,0,.31.82,1.12,1.12,0,0,0,.45.42,1.25,1.25,0,0,0,.54.12,1.31,1.31,0,0,0,.66-.18,1.84,1.84,0,0,0,.54-.46,2.45,2.45,0,0,0,.36-.63,2,2,0,0,0,.14-.7Z"/><path class="cls-1" d="M91,14.65a1.28,1.28,0,0,0-.18-.68.68.68,0,0,0-.61-.29,1,1,0,0,0-.4.08,1.84,1.84,0,0,0-.36.22l-.27-.32a8.49,8.49,0,0,1,.7-.51,5.3,5.3,0,0,1,.82-.43,5.68,5.68,0,0,1,1-.31,4.18,4.18,0,0,1,1.07-.13,2.83,2.83,0,0,1,1.26.24,2,2,0,0,1,.73.58,2.05,2.05,0,0,1,.33.74,4,4,0,0,1,.08.73v6l.41-.37a4.06,4.06,0,0,1,.65-.44,4.51,4.51,0,0,1,.93-.36,5,5,0,0,1,1.29-.15,4,4,0,0,1,1.72.4,4.39,4.39,0,0,1,1.55,1.24,6.75,6.75,0,0,1,1.11,2.18,10.41,10.41,0,0,1,.43,3.2,9.61,9.61,0,0,1-.39,2.77,6.86,6.86,0,0,1-1.18,2.28,5.59,5.59,0,0,1-2,1.54,6.15,6.15,0,0,1-2.72.57,6.64,6.64,0,0,1-2.83-.55,5,5,0,0,1-1.85-1.46,5.91,5.91,0,0,1-1-2.15,10.85,10.85,0,0,1-.3-2.58Zm8,11.86a19.09,19.09,0,0,0-.12-2.2,8.59,8.59,0,0,0-.39-1.8,3.61,3.61,0,0,0-.68-1.22,1.34,1.34,0,0,0-1-.45,1.27,1.27,0,0,0-.77.22,2.08,2.08,0,0,0-.52.5,2.05,2.05,0,0,0-.3.56,1.62,1.62,0,0,0-.09.37v4a13.34,13.34,0,0,0,.49,4.27c.33.88.81,1.33,1.44,1.33s1.17-.45,1.48-1.36A13.8,13.8,0,0,0,99.05,26.51Z"/><path class="cls-1" d="M116.58,21.36a23.22,23.22,0,0,1-.48,4.76,23.69,23.69,0,0,1-1.32,4.3,19.79,19.79,0,0,1-2,3.67,15.64,15.64,0,0,1-2.52,2.85,11.17,11.17,0,0,1-2.87,1.84,7.6,7.6,0,0,1-3.06.66,3.45,3.45,0,0,1-1.83-.4,1.21,1.21,0,0,1-.65-1.07,1.47,1.47,0,0,1,.09-.5,1.56,1.56,0,0,1,.21-.43,1.3,1.3,0,0,1,.32-.3.84.84,0,0,1,.41-.11.48.48,0,0,1,.42.25l.36.56a3,3,0,0,0,.45.56,1,1,0,0,0,.74.25,4.47,4.47,0,0,0,1.27-.2,6.43,6.43,0,0,0,1.32-.6,9.35,9.35,0,0,0,1.33-1,15.19,15.19,0,0,0,1.32-1.24c-.26-.91-.54-1.9-.87-3s-.67-2.15-1-3.23-.73-2.14-1.11-3.14S106.32,24,106,23.23a11.33,11.33,0,0,0-1-1.87c-.34-.47-.63-.71-.89-.71a.86.86,0,0,0-.4.08,2.94,2.94,0,0,0-.33.23l-.27-.34.57-.47a3.36,3.36,0,0,1,.7-.44,3.69,3.69,0,0,1,.94-.33,5.4,5.4,0,0,1,1.29-.13,3.19,3.19,0,0,1,1.52.37A3.38,3.38,0,0,1,109.33,21a18.37,18.37,0,0,1,.87,1.77q.45,1,.9,2.31c.31.86.62,1.78.93,2.77s.62,2,.93,3.11a21.13,21.13,0,0,0,1.35-3.7,16,16,0,0,0,.51-4,7.61,7.61,0,0,0-.1-1.27,6.54,6.54,0,0,0-.21-.89c-.08-.25-.16-.46-.22-.63a1.49,1.49,0,0,1-.09-.47.44.44,0,0,1,.16-.34,1.24,1.24,0,0,1,.39-.22,3.9,3.9,0,0,1,.46-.12l.4,0a.91.91,0,0,1,.56.15.93.93,0,0,1,.29.42,2.2,2.2,0,0,1,.1.67C116.57,20.75,116.58,21,116.58,21.36Z"/><path class="cls-1" d="M135.19,13.11a10.07,10.07,0,0,1,5.59,1.29,4.22,4.22,0,0,1,1.93,3.72,6.38,6.38,0,0,1-.28,2,4.28,4.28,0,0,1-.76,1.42,4.39,4.39,0,0,1-1.17,1,9.46,9.46,0,0,1-1.48.65,2.29,2.29,0,0,1,1.11.8,11.74,11.74,0,0,1,1.14,1.59q.58.95,1.17,2.1L143.63,30c.4.79.8,1.56,1.21,2.3a22.57,22.57,0,0,0,1.22,2,7.32,7.32,0,0,0,1.24,1.4,2,2,0,0,0,1.25.53,1.44,1.44,0,0,0,.53-.11,1.72,1.72,0,0,0,.41-.22l.28.53-.66.33a7.68,7.68,0,0,1-.91.34,10.28,10.28,0,0,1-1.18.28,9.2,9.2,0,0,1-1.45.11,4.05,4.05,0,0,1-2.35-.72,6,6,0,0,1-1.8-2c-.51-.9-1-1.84-1.51-2.83l-1.47-3c-.49-1-1-1.95-1.47-2.89s-1-1.82-1.47-2.65l.11-.55a1.89,1.89,0,0,0,1.38-.09,2.33,2.33,0,0,0,1-1,5.35,5.35,0,0,0,.56-1.64,11.41,11.41,0,0,0,.18-2.1,6.13,6.13,0,0,0-.18-1.51,4.46,4.46,0,0,0-.49-1.24,2.55,2.55,0,0,0-.76-.83,1.72,1.72,0,0,0-1-.3,1.61,1.61,0,0,0-.71.13,1.12,1.12,0,0,0-.66.74,1.52,1.52,0,0,0-.06.42v16A1.92,1.92,0,0,1,134.3,33,3.18,3.18,0,0,1,131,33a1.92,1.92,0,0,1-.54-1.51V15.36c0-.49-.34-.74-1-.74a5.26,5.26,0,0,0-1.5.23,5.17,5.17,0,0,0-1.37.6,3.59,3.59,0,0,0-1,.92,1.88,1.88,0,0,0-.39,1.15,1.63,1.63,0,0,0,.12.68,1.2,1.2,0,0,0,.26.39.88.88,0,0,0,.3.16l.23,0a1.28,1.28,0,0,0,.55-.11,3.73,3.73,0,0,0,.39-.25l.33-.24a.61.61,0,0,1,.35-.11.91.91,0,0,1,.35.07.93.93,0,0,1,.33.24,1.16,1.16,0,0,1,.26.42,1.56,1.56,0,0,1,.11.64,1.94,1.94,0,0,1-.21.93A2.1,2.1,0,0,1,128,21a2.38,2.38,0,0,1-.76.39,2.72,2.72,0,0,1-.84.13,3,3,0,0,1-1.16-.22,2.61,2.61,0,0,1-1.43-1.53,3.18,3.18,0,0,1-.19-1.12,4.42,4.42,0,0,1,.42-2,4.26,4.26,0,0,1,1.17-1.47,6.8,6.8,0,0,1,1.82-1,13.7,13.7,0,0,1,2.36-.65,22.63,22.63,0,0,1,2.76-.34C133.11,13.14,134.13,13.11,135.19,13.11Z"/><path class="cls-1" d="M146.18,26.33a8.55,8.55,0,0,1,.51-3.09A6.53,6.53,0,0,1,148.06,21a5.43,5.43,0,0,1,2-1.34,6.52,6.52,0,0,1,2.37-.44,6.93,6.93,0,0,1,2.36.41,5.4,5.4,0,0,1,2,1.26,6.09,6.09,0,0,1,1.36,2.14,8.42,8.42,0,0,1,.51,3.08,8.88,8.88,0,0,1-.51,3.12,7,7,0,0,1-1.36,2.28,5.66,5.66,0,0,1-2,1.41,6,6,0,0,1-2.36.48A6.32,6.32,0,0,1,150,33a5.56,5.56,0,0,1-2-1.34,6.48,6.48,0,0,1-1.37-2.22A8.63,8.63,0,0,1,146.18,26.33Zm8.27-.14c0-.72,0-1.41-.07-2.08a9.73,9.73,0,0,0-.29-1.78,3.2,3.2,0,0,0-.62-1.24,1.42,1.42,0,0,0-2.13,0,3.53,3.53,0,0,0-.62,1.29,10.37,10.37,0,0,0-.28,1.83q-.06,1-.06,2.1t.06,2.1a10.34,10.34,0,0,0,.28,1.84,3.45,3.45,0,0,0,.62,1.29,1.31,1.31,0,0,0,1.07.49,1.3,1.3,0,0,0,1.06-.51,3.71,3.71,0,0,0,.62-1.34,10.93,10.93,0,0,0,.29-1.88C154.43,27.62,154.45,26.91,154.45,26.19Z"/><path class="cls-1" d="M161.31,21.62a1.25,1.25,0,0,0-.18-.68.68.68,0,0,0-.61-.29.87.87,0,0,0-.39.08,1.61,1.61,0,0,0-.35.23l-.29-.34a6.63,6.63,0,0,1,.7-.5,5.34,5.34,0,0,1,.82-.44,6.74,6.74,0,0,1,1-.31,4.68,4.68,0,0,1,1.07-.12,3.1,3.1,0,0,1,1.36.24,1.74,1.74,0,0,1,.71.57,1.6,1.6,0,0,1,.28.74,6.22,6.22,0,0,1,.05.68V31a11.34,11.34,0,0,1-.48,3.37,7.34,7.34,0,0,1-1.45,2.67,6.67,6.67,0,0,1-2.42,1.76,8.41,8.41,0,0,1-3.39.63,7,7,0,0,1-1.31-.12,5.33,5.33,0,0,1-1.12-.31,2.68,2.68,0,0,1-.77-.48.8.8,0,0,1-.29-.61,1.66,1.66,0,0,1,.07-.49,1.55,1.55,0,0,1,.21-.45,1,1,0,0,1,.33-.33.76.76,0,0,1,.44-.13.33.33,0,0,1,.26.15,2.82,2.82,0,0,1,.23.36c.09.14.18.3.28.48a2.22,2.22,0,0,0,.4.48,2.15,2.15,0,0,0,1.46.51,2.6,2.6,0,0,0,1.21-.28,2.73,2.73,0,0,0,.9-.76,4.17,4.17,0,0,0,.64-1.14,8.57,8.57,0,0,0,.4-1.41,13.09,13.09,0,0,0,.21-1.58c0-.54.06-1.09.06-1.64Zm-.42-5.44a1.58,1.58,0,0,1,.17-.71,1.82,1.82,0,0,1,.47-.6,2.43,2.43,0,0,1,.7-.41,2.41,2.41,0,0,1,.87-.14,2.37,2.37,0,0,1,.85.14,2.14,2.14,0,0,1,.69.41,1.82,1.82,0,0,1,.47.6,1.58,1.58,0,0,1,.17.71,1.6,1.6,0,0,1-.17.73,1.78,1.78,0,0,1-.47.59,2.3,2.3,0,0,1-.69.39,2.37,2.37,0,0,1-.85.15,2.41,2.41,0,0,1-.87-.15,2.64,2.64,0,0,1-.7-.39,1.78,1.78,0,0,1-.47-.59A1.6,1.6,0,0,1,160.89,16.18Z"/><path class="cls-1" d="M172.74,20.35a3.3,3.3,0,0,0-.85.11,2.75,2.75,0,0,0-.67.27,1.49,1.49,0,0,0-.44.36.57.57,0,0,0-.16.37.3.3,0,0,0,.2.29l.47.2a1.42,1.42,0,0,1,.46.32.87.87,0,0,1,.21.64,1.27,1.27,0,0,1-.11.52,1.53,1.53,0,0,1-.31.41,1.56,1.56,0,0,1-.46.29,1.72,1.72,0,0,1-.55.1,1.56,1.56,0,0,1-1.21-.51,2,2,0,0,1-.47-1.36,2.36,2.36,0,0,1,.43-1.41,3.42,3.42,0,0,1,1.13-1,5.65,5.65,0,0,1,1.56-.56,8.76,8.76,0,0,1,3.76.05,4.82,4.82,0,0,1,1.68.73,3.71,3.71,0,0,1,1.17,1.26,3.61,3.61,0,0,1,.44,1.86v7.59c0,.09,0,.18,0,.27a1.07,1.07,0,0,0,.07.27.53.53,0,0,0,.16.2.48.48,0,0,0,.31.09.69.69,0,0,0,.45-.19,2.59,2.59,0,0,0,.37-.37l.34.29c-.14.18-.3.39-.49.61a3.49,3.49,0,0,1-.68.64,4,4,0,0,1-.94.49,3.37,3.37,0,0,1-1.23.21A2.33,2.33,0,0,1,175,31.37a6.07,6.07,0,0,1-.9,1,4.6,4.6,0,0,1-.95.63,4,4,0,0,1-1,.35,4.77,4.77,0,0,1-1,.11,3.77,3.77,0,0,1-1.25-.21,3,3,0,0,1-1.08-.63,3.14,3.14,0,0,1-.77-1.14,4.56,4.56,0,0,1-.29-1.71,3.68,3.68,0,0,1,.49-2,4.17,4.17,0,0,1,1.27-1.31,8.12,8.12,0,0,1,1.79-.91l2.05-.8a2.11,2.11,0,0,0,1.13-.92,2.4,2.4,0,0,0,.36-1.25,2.19,2.19,0,0,0-.59-1.6A2.12,2.12,0,0,0,172.74,20.35Zm2.14,5.89a.61.61,0,0,0-.22-.51.86.86,0,0,0-.55-.17,2,2,0,0,0-.89.21,2.37,2.37,0,0,0-.75.64,3.36,3.36,0,0,0-.51,1,4.74,4.74,0,0,0-.19,1.42,5.77,5.77,0,0,0,.12,1.29,2.34,2.34,0,0,0,.31.82,1.12,1.12,0,0,0,.45.42,1.24,1.24,0,0,0,.53.12,1.26,1.26,0,0,0,.66-.18,1.84,1.84,0,0,0,.54-.46,2.45,2.45,0,0,0,.36-.63,2,2,0,0,0,.14-.7Z"/><path class="cls-1" d="M186.86,20.33a1.85,1.85,0,0,0-.58.08,1.22,1.22,0,0,0-.49.26,1.13,1.13,0,0,0-.34.46,1.6,1.6,0,0,0-.12.65,1.76,1.76,0,0,0,.38,1,9.1,9.1,0,0,0,1,1.08c.38.37.79.76,1.23,1.15a12.37,12.37,0,0,1,1.24,1.27,7.39,7.39,0,0,1,1,1.42,3.57,3.57,0,0,1,.38,1.61,4.22,4.22,0,0,1-.33,1.72,3.44,3.44,0,0,1-.94,1.28,4.13,4.13,0,0,1-1.48.8,6.47,6.47,0,0,1-1.93.28,4.93,4.93,0,0,1-1.68-.27,6.16,6.16,0,0,1-1.34-.64,6,6,0,0,1-1-.82,4.61,4.61,0,0,1-.65-.78l.47-.33c.12.13.27.28.45.44a4.6,4.6,0,0,0,.6.43,3,3,0,0,0,.7.33,2.27,2.27,0,0,0,.77.13,2.6,2.6,0,0,0,1.59-.46,1.62,1.62,0,0,0,.61-1.38A2,2,0,0,0,186,29a8.72,8.72,0,0,0-.85-1.12c-.34-.39-.71-.79-1.1-1.2a16.67,16.67,0,0,1-1.11-1.28,7.18,7.18,0,0,1-.84-1.35,3.26,3.26,0,0,1-.34-1.46A3,3,0,0,1,183,20.08a4.23,4.23,0,0,1,1.3-.62,5.52,5.52,0,0,1,1.52-.21,7.6,7.6,0,0,1,1.64.16,4.15,4.15,0,0,1,1.27.49,2.41,2.41,0,0,1,.82.83,2.29,2.29,0,0,1,.29,1.16,1.25,1.25,0,0,1-.34.88,1.17,1.17,0,0,1-.94.38,1.32,1.32,0,0,1-.88-.25.83.83,0,0,1-.3-.68.63.63,0,0,1,.14-.44,1.08,1.08,0,0,1,.31-.26l.32-.18a.22.22,0,0,0,.14-.19.67.67,0,0,0-.4-.6A2.14,2.14,0,0,0,186.86,20.33Z"/><path class="cls-1" d="M83.34,43.62v4h-1.1v-4H80.85v-.95h3.88v.95Z"/><path class="cls-1" d="M90.49,42.67v1H88v1h2.2v.93H88v1h2.53v1H86.94V42.67Z"/><path class="cls-1" d="M96.94,44.31A1.44,1.44,0,0,1,96,45.83l1.24,1.76H95.9L94.81,46h-.76v1.57H93V42.67h1.87a2.63,2.63,0,0,1,1.63.39A1.48,1.48,0,0,1,96.94,44.31Zm-1.32.58a.72.72,0,0,0,.21-.58.64.64,0,0,0-.22-.55,1.43,1.43,0,0,0-.74-.14h-.82v1.45h.8A1.2,1.2,0,0,0,95.62,44.89Z"/><path class="cls-1" d="M103,47.59l-.45-1.06h-2.07L100,47.59H98.84L101,42.67H102l2.12,4.92Zm-1.48-3.45-.62,1.43h1.23Z"/><path class="cls-1" d="M109.52,43.11a1.72,1.72,0,0,1,.52,1.36,1.59,1.59,0,0,1-.54,1.33,2.57,2.57,0,0,1-1.62.42h-.65v1.37h-1.1V42.67h1.74A2.56,2.56,0,0,1,109.52,43.11Zm-.81,1.94a1,1,0,0,0,.2-.65.69.69,0,0,0-.26-.6,1.39,1.39,0,0,0-.8-.18h-.62v1.65H108A1,1,0,0,0,108.71,45.05Z"/><path class="cls-1" d="M112.3,42.67h1.1v4.92h-1.1Z"/><path class="cls-1" d="M119.52,47.59l-.45-1.06H117l-.45,1.06h-1.17l2.12-4.92h1.07l2.12,4.92ZM118,44.14l-.62,1.43h1.23Z"/><path class="cls-1" d="M125.94,42.67H127v4.92h-1.09Z"/><path class="cls-1" d="M133.09,42.67h1.1v4.92h-1.1l-2.34-3.08v3.08h-1.1V42.67h1l2.41,3.17Z"/><path class="cls-1" d="M138.89,43.62v4H137.8v-4h-1.4v-.95h3.89v.95Z"/><path class="cls-1" d="M146,42.67v1h-2.45v1h2.21v.93h-2.21v1h2.53v1H142.5V42.67Z"/><path class="cls-1" d="M151.7,45.09h1.11v1.74a2.58,2.58,0,0,1-2,.82,2.5,2.5,0,0,1-1.82-.72,2.42,2.42,0,0,1-.73-1.81,2.46,2.46,0,0,1,.75-1.83,2.52,2.52,0,0,1,1.8-.73,2.69,2.69,0,0,1,1.85.7l-.57.82a2.73,2.73,0,0,0-.61-.4,1.74,1.74,0,0,0-.61-.11,1.45,1.45,0,0,0-1.05.43,1.49,1.49,0,0,0-.43,1.12,1.54,1.54,0,0,0,.41,1.12,1.33,1.33,0,0,0,1,.42,1.83,1.83,0,0,0,.95-.22Z"/><path class="cls-1" d="M159.19,44.31a1.45,1.45,0,0,1-.94,1.52l1.24,1.76h-1.35L157.05,46h-.76v1.57h-1.1V42.67h1.87a2.69,2.69,0,0,1,1.64.39A1.51,1.51,0,0,1,159.19,44.31Zm-1.33.58a.72.72,0,0,0,.21-.58.62.62,0,0,0-.22-.55,1.41,1.41,0,0,0-.73-.14h-.83v1.45h.8A1.18,1.18,0,0,0,157.86,44.89Z"/><path class="cls-1" d="M165.22,47.59l-.45-1.06H162.7l-.45,1.06h-1.17l2.12-4.92h1.07l2.12,4.92Zm-1.48-3.45-.62,1.43h1.23Z"/><path class="cls-1" d="M168.37,47.59V42.67h1.1v3.95h2.1v1Z"/><path class="cls-1" d="M53.75,27.34a.66.66,0,0,0,0-.8,28,28,0,0,0-3.34-3.64,14.78,14.78,0,0,0,1.19-7,.68.68,0,0,0-.23-.46,14.85,14.85,0,0,0-6.5-3L44.48,10a.67.67,0,0,0-.56-.56L41.49,9a14.73,14.73,0,0,0-3.05-6.5A.67.67,0,0,0,38,2.28a14.9,14.9,0,0,0-7,1.19A27,27,0,0,0,27.34.13a.69.69,0,0,0-.8,0A28,28,0,0,0,22.9,3.47a14.92,14.92,0,0,0-7-1.19.69.69,0,0,0-.46.24,14.85,14.85,0,0,0-3,6.5L10,9.41a.66.66,0,0,0-.56.56L9,12.39a14.85,14.85,0,0,0-6.5,3,.69.69,0,0,0-.24.46,14.92,14.92,0,0,0,1.19,7A28,28,0,0,0,.13,26.54a.69.69,0,0,0,0,.8A27,27,0,0,0,3.47,31a14.91,14.91,0,0,0-1.19,7,.67.67,0,0,0,.24.45A14.73,14.73,0,0,0,9,41.49l.39,2.43a.67.67,0,0,0,.56.56l2.42.39a14.85,14.85,0,0,0,3,6.5.68.68,0,0,0,.46.23,9.51,9.51,0,0,0,1,0,14,14,0,0,0,6-1.23,28,28,0,0,0,3.64,3.34.68.68,0,0,0,.8,0A27,27,0,0,0,31,50.41a14,14,0,0,0,6,1.23,9.69,9.69,0,0,0,1,0,.66.66,0,0,0,.45-.23,14.73,14.73,0,0,0,3.05-6.5l2.43-.39a.68.68,0,0,0,.56-.56l.39-2.43a14.73,14.73,0,0,0,6.5-3.05A.66.66,0,0,0,51.6,38a14.77,14.77,0,0,0-1.19-7A27,27,0,0,0,53.75,27.34ZM49.35,22c-.52-.43-1-.81-1.55-1.16a7.61,7.61,0,0,0,.47-3.2.69.69,0,0,0-.24-.46,7.66,7.66,0,0,0-2.75-1.42,18.19,18.19,0,0,0-.19-1.94,13.75,13.75,0,0,1,5.18,2.5A13.79,13.79,0,0,1,49.35,22ZM45.2,17.12a6.29,6.29,0,0,1,1.73.9,6.17,6.17,0,0,1-.3,2.08,14.64,14.64,0,0,0-1.81-.85A13.36,13.36,0,0,0,45.2,17.12ZM37.58,3.61a13.76,13.76,0,0,1,2.5,5.18,18.17,18.17,0,0,0-1.94-.18,7.65,7.65,0,0,0-1.42-2.76.64.64,0,0,0-.45-.23,7.47,7.47,0,0,0-3.21.47c-.34-.52-.73-1-1.15-1.55A13.82,13.82,0,0,1,37.58,3.61Zm-.82,5.07a13.74,13.74,0,0,0-2.13.39,13.42,13.42,0,0,0-.85-1.82A6.17,6.17,0,0,1,35.86,7,6.32,6.32,0,0,1,36.76,8.68ZM16.3,3.61A13.84,13.84,0,0,1,22,4.54c-.43.52-.81,1-1.16,1.55a7.43,7.43,0,0,0-3.2-.47.68.68,0,0,0-.46.23,7.65,7.65,0,0,0-1.42,2.76,18.17,18.17,0,0,0-1.94.18A13.92,13.92,0,0,1,16.3,3.61Zm3.8,3.65a14,14,0,0,0-.85,1.81,13.31,13.31,0,0,0-2.13-.39A6.44,6.44,0,0,1,18,7,6,6,0,0,1,20.1,7.26ZM7.26,20.1A6,6,0,0,1,7,18a6.88,6.88,0,0,1,1.73-.9,13.31,13.31,0,0,0,.39,2.13A14,14,0,0,0,7.26,20.1ZM3.61,16.3a13.75,13.75,0,0,1,5.18-2.5,18.17,18.17,0,0,0-.18,1.94,7.65,7.65,0,0,0-2.76,1.42.74.74,0,0,0-.24.46,7.7,7.7,0,0,0,.48,3.2c-.52.35-1,.73-1.55,1.16A13.84,13.84,0,0,1,3.61,16.3Zm.93,15.61c.52.42,1,.81,1.55,1.15a7.74,7.74,0,0,0-.48,3.21.69.69,0,0,0,.24.45,7.65,7.65,0,0,0,2.76,1.42,18.17,18.17,0,0,0,.18,1.94,13.76,13.76,0,0,1-5.18-2.5A13.82,13.82,0,0,1,4.54,31.91Zm4.14,4.85A6.17,6.17,0,0,1,7,35.86a6.17,6.17,0,0,1,.3-2.08,13.42,13.42,0,0,0,1.81.86A14.68,14.68,0,0,0,8.68,36.76ZM16.3,50.27a13.75,13.75,0,0,1-2.5-5.18,18.19,18.19,0,0,0,1.94.19A7.66,7.66,0,0,0,17.16,48a.69.69,0,0,0,.46.24s.21,0,.5,0a7.22,7.22,0,0,0,2.7-.49c.35.51.73,1,1.16,1.55A13.79,13.79,0,0,1,16.3,50.27Zm.82-5.07a13.36,13.36,0,0,0,2.13-.38,14.64,14.64,0,0,0,.85,1.81,6.17,6.17,0,0,1-2.08.3A6.44,6.44,0,0,1,17.12,45.2Zm20.46,5.07a13.75,13.75,0,0,1-5.67-.92c.42-.52.81-1,1.15-1.55a7.26,7.26,0,0,0,2.7.49c.3,0,.48,0,.51,0a.65.65,0,0,0,.45-.24,7.66,7.66,0,0,0,1.42-2.75,18.19,18.19,0,0,0,1.94-.19A13.6,13.6,0,0,1,37.58,50.27Zm-3.8-3.64a12.22,12.22,0,0,0,.85-1.81,13.78,13.78,0,0,0,2.13.38,6.25,6.25,0,0,1-.9,1.74A6.7,6.7,0,0,1,33.78,46.63Zm9.44-3.41-2.66.43a16.89,16.89,0,0,1-2.6.27A13.17,13.17,0,0,1,35,43.53a7.85,7.85,0,0,0,0-3.76.68.68,0,0,0-1.31.33,6.51,6.51,0,0,1,0,3A6.05,6.05,0,0,1,31,41a.67.67,0,0,0-.92-.23.68.68,0,0,0-.24.93,7.46,7.46,0,0,0,3.57,2.66c-1.44,3.72-5.18,7-6.42,8-1.23-1-5-4.23-6.41-8a7.4,7.4,0,0,0,3.56-2.66.68.68,0,0,0-1.16-.7,6,6,0,0,1-2.8,2.07,6.38,6.38,0,0,1,0-3,.68.68,0,1,0-1.31-.33,7.84,7.84,0,0,0,0,3.76,13.17,13.17,0,0,1-2.93.39,17,17,0,0,1-2.6-.27l-2.66-.43-.43-2.66A18.23,18.23,0,0,1,10,38,13.25,13.25,0,0,1,10.35,35a8.68,8.68,0,0,0,2,.25,7.61,7.61,0,0,0,1.78-.22.68.68,0,0,0-.33-1.31,6.51,6.51,0,0,1-3,0A6,6,0,0,1,12.84,31a.67.67,0,0,0,.23-.92.66.66,0,0,0-.92-.23,7.2,7.2,0,0,0-2.66,3.56c-3.73-1.44-7-5.18-8-6.42,1-1.23,4.23-5,8-6.41a7.26,7.26,0,0,0,2.66,3.56.69.69,0,0,0,.34.09.67.67,0,0,0,.58-.32.68.68,0,0,0-.23-.93,6,6,0,0,1-2.06-2.8,6.38,6.38,0,0,1,3,0,.68.68,0,0,0,.82-.49.67.67,0,0,0-.49-.82,7.84,7.84,0,0,0-3.76,0,12.56,12.56,0,0,1-.4-2.93,18.23,18.23,0,0,1,.27-2.6l.43-2.66,2.66-.43a18.38,18.38,0,0,1,2.6-.27,12.56,12.56,0,0,1,2.93.4,7.84,7.84,0,0,0,0,3.76.67.67,0,0,0,.82.49.68.68,0,0,0,.49-.82,6.38,6.38,0,0,1,0-3,6,6,0,0,1,2.8,2.06.68.68,0,0,0,.93.23.67.67,0,0,0,.23-.92,7.26,7.26,0,0,0-3.56-2.66c1.43-3.73,5.18-7,6.41-8,1.24,1,5,4.23,6.42,8a7.32,7.32,0,0,0-3.57,2.66.67.67,0,0,0,1.16.69,6.08,6.08,0,0,1,2.8-2.06,6.51,6.51,0,0,1,0,3,.68.68,0,0,0,.49.82l.16,0a.68.68,0,0,0,.66-.51,7.85,7.85,0,0,0,0-3.76A12.56,12.56,0,0,1,38,10a18.23,18.23,0,0,1,2.6.27l2.66.43.43,2.66a16.89,16.89,0,0,1,.27,2.6,13.17,13.17,0,0,1-.39,2.93,7.84,7.84,0,0,0-3.76,0,.68.68,0,0,0,.33,1.31,6.38,6.38,0,0,1,3,0A6.05,6.05,0,0,1,41,22.93a.68.68,0,0,0,.35,1.26.74.74,0,0,0,.35-.1,7.4,7.4,0,0,0,2.66-3.56c3.72,1.43,7,5.18,8,6.41-1,1.24-4.23,5-8,6.42a7.33,7.33,0,0,0-2.66-3.56.67.67,0,0,0-.92.23A.66.66,0,0,0,41,31a6.06,6.06,0,0,1,2.07,2.8,6.51,6.51,0,0,1-3,0,.68.68,0,1,0-.33,1.31,7.54,7.54,0,0,0,1.78.22,8.59,8.59,0,0,0,2-.25A13.25,13.25,0,0,1,43.92,38a16.89,16.89,0,0,1-.27,2.6Zm3.71-7.35a6.27,6.27,0,0,1-1.73.89,13.43,13.43,0,0,0-.38-2.12,12.87,12.87,0,0,0,1.81-.86A6.22,6.22,0,0,1,46.93,35.87Zm3.34,1.71a13.52,13.52,0,0,1-5.18,2.5,17.94,17.94,0,0,0,.19-1.94A7.66,7.66,0,0,0,48,36.72a.65.65,0,0,0,.24-.45,7.65,7.65,0,0,0-.47-3.21c.51-.34,1-.73,1.55-1.15A13.77,13.77,0,0,1,50.27,37.58Z"/><path class="cls-1" d="M36.48,17.34c-1,0-2.09,0-3.14,0a3.07,3.07,0,0,0-1.62.87,2.79,2.79,0,0,0-.8,1.95c0,1.25,0,2.5,0,3.75a2.72,2.72,0,0,1-.67,1.86,2.68,2.68,0,0,1-1.53.9c-.14,0-.18,0-.18-.14v-7.2c0-.66.17-.83.83-.83a1.21,1.21,0,0,0,.19,0,.59.59,0,0,0,.61-.42.61.61,0,0,0-.3-.69l-.08-.05h-6l-.14.09a.58.58,0,0,0-.23.64.58.58,0,0,0,.54.43c.12,0,.25,0,.37,0,.5,0,.71.22.71.73V24c0,.82,0,1.64,0,2.46,0,.18,0,.21-.22.18a2.75,2.75,0,0,1-2.14-2.36c0-.47,0-.95,0-1.42V20.22a2.87,2.87,0,0,0-2.22-2.82l-.2-.06H17.4a.68.68,0,0,0-.4.7c0,.71,0,1.43,0,2.14a.57.57,0,0,0,.62.62h1.28c.31,0,.31,0,.31.3,0,1,0,2,0,3A6,6,0,0,0,21,28.32a6.13,6.13,0,0,0,3.89,1.87c.18,0,.21.08.21.24,0,.46,0,.91,0,1.37v3.29a.6.6,0,0,1-.66.67h-.36a.59.59,0,1,0,0,1.17h5.52a.57.57,0,0,0,.6-.58.57.57,0,0,0-.59-.59h-.36a.61.61,0,0,1-.69-.68V30.44c0-.16,0-.25.21-.26a4,4,0,0,0,.68-.1,6.21,6.21,0,0,0,5-6v-3c0-.29,0-.29.3-.29s.8,0,1.19,0a.66.66,0,0,0,.71-.4c0-1,0-2,0-2.94C36.6,17.36,36.58,17.34,36.48,17.34Zm-1.23,2.29H33.86a.58.58,0,0,0-.64.64c0,1.21,0,2.43,0,3.65A5,5,0,0,1,28.53,29L28,29a.58.58,0,0,0-.61.61v5.41a2.19,2.19,0,0,0,0,.57c0,.1,0,.14-.1.14h-1c-.1,0-.14,0-.11-.14a2,2,0,0,0,.05-.6c0-1.75,0-3.49,0-5.24a.67.67,0,0,0-.74-.76,5,5,0,0,1-4.67-3,4.92,4.92,0,0,1-.44-2.14c0-1.2,0-2.39,0-3.59a.6.6,0,0,0-.68-.68H18.37c-.14,0-.2,0-.19-.19s0-.52,0-.78c0-.1,0-.16.14-.16.59,0,1.18,0,1.78,0a1.69,1.69,0,0,1,1.38,1.4,3.81,3.81,0,0,1,0,.59c0,1.19,0,2.38,0,3.57a3.93,3.93,0,0,0,3.34,3.78,7.22,7.22,0,0,0,.8,0,.58.58,0,0,0,.59-.58V18.77c0-.26,0-.27.26-.27h.59c.27,0,.27,0,.27.26V23c0,1.37,0,2.73,0,4.09,0,.57.25.8.8.81A3.94,3.94,0,0,0,32,24.73a2.81,2.81,0,0,0,.07-.65c0-1.24,0-2.49,0-3.74a1.78,1.78,0,0,1,.63-1.44,1.71,1.71,0,0,1,1.13-.39h1.39c.15,0,.19.05.19.19s0,.5,0,.75S35.39,19.63,35.25,19.63Z"/><path class="cls-1" d="M15.21,26.67v.82h1a.83.83,0,0,1-.91.61,1,1,0,0,1-.79-.32,1.24,1.24,0,0,1,0-1.65,1.08,1.08,0,0,1,.8-.32,1.13,1.13,0,0,1,.32.05,1.18,1.18,0,0,1,.25.1.75.75,0,0,1,.17.14l.11.1,0,0,.82-.81-.07-.08a1.19,1.19,0,0,0-.19-.17L16.4,25a2.22,2.22,0,0,0-.48-.17,2.59,2.59,0,0,0-.63-.07,2.23,2.23,0,0,0-1.62.65,2.21,2.21,0,0,0,0,3.13,2.19,2.19,0,0,0,1.61.62,2,2,0,0,0,1.54-.61A2.18,2.18,0,0,0,17.39,27a1.73,1.73,0,0,0,0-.32Z"/><path class="cls-1" d="M39.53,27.54a1.44,1.44,0,0,0,.6-.52,1.43,1.43,0,0,0,.22-.78,1.31,1.31,0,0,0-.45-1,1.64,1.64,0,0,0-1.16-.4h-2v4.28h1.16V27.71h.42l.83,1.37h1.35Zm-.5-.86a.62.62,0,0,1-.43.14h-.67v-1h.67a.62.62,0,0,1,.43.14.56.56,0,0,1,0,.76Z"/></g></g></svg>